<svg width="10683" height="1488" viewBox="0 0 10683 1488" fill="none" xmlns="http://www.w3.org/2000/svg">
<g clip-path="url(#clip0_374_4555)">
<path d="M456.893 1485.93C387.296 1485.93 325.34 1474.73 271.441 1452.35C217.403 1429.96 171.7 1401.08 134.192 1365.7C96.5464 1330.33 66.9574 1292.33 45.0088 1251.56C23.1991 1210.8 8.05733 1171.41 -0.138672 1133.27L237.546 1043.59C259.355 1103.42 288.389 1149.58 324.645 1182.19C360.763 1214.8 406.189 1231.11 460.921 1231.11C501.901 1231.11 540.798 1221.58 577.749 1202.64C614.701 1183.57 644.29 1153.03 666.933 1110.89C689.437 1068.74 700.689 1014.43 700.689 947.826V30.5394H979.354V1029.36C979.354 1099.97 966.295 1163.54 940.457 1219.92C914.48 1276.3 877.945 1324.25 830.853 1363.63C783.761 1403.01 728.333 1433.28 664.849 1454.28C601.365 1475.29 532.046 1485.93 456.893 1485.93Z" fill="white"/>
<path d="M1563.35 1481.78C1440.41 1481.78 1345.12 1454.56 1277.47 1400.25C1209.81 1345.94 1176.06 1269.11 1176.06 1169.89C1176.06 1061.14 1212.59 979.331 1285.66 924.332C1358.73 869.334 1461.53 841.835 1594.05 841.835H1854.24V1041.65H1688.24C1599.47 1041.65 1537.93 1052.16 1503.76 1073.3C1469.59 1094.44 1452.5 1123.87 1452.5 1162.01C1452.5 1191.86 1466.11 1215.35 1493.48 1232.35C1520.85 1249.35 1559.05 1257.78 1608.22 1257.78C1651.98 1257.78 1690.88 1247.28 1725.05 1226.13C1759.23 1205.13 1786.17 1177.91 1806.04 1144.6C1825.77 1111.3 1835.77 1077.03 1835.77 1041.65H1907.45C1907.45 1180.26 1880.5 1288.32 1826.46 1365.7C1772.42 1443.09 1684.77 1481.92 1563.22 1481.92L1563.35 1481.78ZM1846.19 1457.32L1835.91 1251.42V941.606C1835.91 880.389 1829.1 828.431 1815.35 785.731C1801.73 742.893 1780.9 710.281 1752.84 687.894C1724.77 665.508 1687.54 654.315 1641.15 654.315C1600.17 654.315 1563.22 663.159 1530.43 680.847C1497.65 698.535 1469.59 727.001 1446.39 766.523L1200.51 682.919C1219.68 639.39 1247.6 596.967 1284.55 555.511C1321.36 514.055 1369.57 480.061 1429.02 453.529C1488.48 426.997 1561.13 413.731 1647.26 413.731C1749.78 413.731 1835.35 432.11 1904.39 468.729C1973.29 505.487 2024.97 559.38 2059.14 630.823C2093.32 702.128 2109.71 789.462 2108.32 892.688L2102.21 1457.32H1846.05H1846.19Z" fill="white"/>
<path d="M2323.5 1457.32V438.19H2577.57L2593.97 625.71V1457.32H2323.5ZM3001.68 935.526C3001.68 866.294 2993.76 812.539 2978.07 774.538C2962.37 736.536 2940.14 709.037 2911.53 692.04C2882.91 675.043 2849.29 666.613 2811.09 666.613C2741.36 665.232 2687.73 686.374 2650.23 729.765C2612.58 773.294 2593.83 837.827 2593.83 923.365H2503.67C2503.67 814.612 2519.65 722.579 2551.87 647.129C2583.96 571.679 2628.69 513.917 2686.07 473.842C2743.44 433.768 2811.09 413.731 2888.88 413.731C3013.21 413.731 3108.51 451.456 3174.77 526.906C3241.03 602.356 3273.4 718.157 3272.15 874.447L3001.68 935.526ZM3001.68 1457.32V935.526L3272.15 874.447V1457.46H3001.68V1457.32ZM3681.95 935.526C3681.95 866.294 3673.76 812.539 3657.36 774.538C3640.97 736.536 3618.74 709.037 3590.82 692.04C3562.76 675.043 3529.01 666.613 3489.41 666.613C3419.68 665.232 3366.06 686.374 3328.55 729.765C3290.9 773.294 3272.15 837.827 3272.15 923.365H3181.99C3181.99 814.612 3197.97 722.579 3230.2 647.129C3262.29 571.679 3307.3 513.917 3365.5 473.842C3423.57 433.768 3491.5 413.731 3569.43 413.731C3693.76 413.731 3788.64 451.456 3854.21 526.906C3919.77 602.356 3952.56 718.157 3952.56 874.447L3682.09 935.526H3681.95ZM3681.95 1457.32V935.526L3952.42 874.447V1457.46H3681.95V1457.32Z" fill="white"/>
<path d="M4630.74 1481.78C4529.61 1481.78 4440.15 1458.98 4362.36 1413.52C4284.57 1368.05 4223.3 1305.18 4178.99 1225.03C4134.54 1144.88 4112.45 1052.43 4112.45 947.826C4112.45 843.218 4135.37 750.771 4181.07 670.622C4226.78 590.474 4289.7 527.599 4369.58 482.135C4449.46 436.671 4541.28 413.87 4645.19 413.87C4733.96 413.87 4816.33 437.362 4892.04 484.208C4967.89 531.053 5029.01 599.732 5075.41 690.107C5121.81 780.481 5145.15 890.202 5145.15 1019.27H4870.51C4871.9 929.585 4862.59 857.866 4842.87 804.249C4823 750.633 4795.36 711.802 4759.93 688.034C4724.37 664.266 4682.7 652.382 4634.91 652.382C4581.71 652.382 4536.56 663.298 4499.61 684.994C4462.79 706.689 4435.01 739.716 4416.67 783.798C4398.2 828.018 4389.03 885.365 4389.03 955.979C4389.03 1017.2 4401.25 1068.05 4425.84 1108.81C4450.43 1149.58 4483.21 1180.53 4524.19 1201.54C4565.17 1222.68 4610.32 1233.18 4659.5 1233.18C4712.7 1233.18 4756.18 1221.71 4789.66 1198.5C4823.14 1175.42 4848.7 1145.57 4866.48 1108.81L5120.56 1206.65C5091.94 1263.72 5054.57 1313.05 5008.87 1354.37C4963.03 1395.83 4908.85 1427.47 4845.92 1449.17C4783.13 1470.86 4711.31 1481.78 4630.74 1481.78ZM4288.59 1019.13L4290.68 809.224H5011.93V1019.13H4288.59Z" fill="white"/>
<path d="M5685.94 1481.78C5620.38 1481.78 5558.84 1471.97 5501.6 1452.21C5444.23 1432.59 5393.67 1403.98 5349.91 1366.53C5306.15 1329.22 5272.11 1283.34 5247.39 1228.9L5478.96 1122.91C5499.38 1155.52 5527.44 1183.71 5563 1207.48C5598.57 1231.25 5639.55 1243.13 5685.94 1243.13C5732.34 1243.13 5765.82 1236.64 5790.41 1223.79C5815 1210.93 5827.36 1192.14 5827.36 1167.68C5827.36 1143.22 5817.5 1125.26 5797.63 1113.65C5777.77 1102.18 5750.82 1092.23 5716.64 1084.08L5622.32 1059.62C5523.97 1033.78 5446.45 992.737 5389.78 936.357C5333.1 879.976 5304.76 815.028 5304.76 741.651C5304.76 637.043 5338.52 556.203 5406.17 499.132C5473.82 442.061 5569.81 413.456 5694 413.456C5758.18 413.456 5817.91 422.991 5873.34 441.923C5928.63 460.992 5976.14 487.524 6015.73 521.38C6055.32 555.374 6082.69 594.758 6097.69 639.668L5874.31 741.651C5864.73 714.428 5841.53 692.456 5804.72 675.459C5767.76 658.462 5730.95 650.033 5694.14 650.033C5657.33 650.033 5628.85 657.909 5609.12 673.524C5589.26 689.14 5579.4 710.559 5579.4 737.781C5579.4 755.469 5588.98 770.117 5608.15 781.587C5627.32 793.194 5654.55 803.006 5690.11 811.159L5823.33 843.771C5890.29 860.077 5943.91 886.194 5984.19 922.261C6024.48 958.328 6053.93 998.403 6072.27 1042.48C6090.74 1086.7 6099.91 1129.82 6099.91 1171.97C6099.91 1233.18 6081.85 1287.08 6045.6 1334.06C6009.34 1380.9 5960.16 1417.25 5898.07 1443.09C5835.83 1468.93 5765.26 1481.78 5685.94 1481.78Z" fill="white"/>
<path d="M6675.58 1488C6596.39 1488 6525.69 1472.38 6463.45 1441.15C6401.22 1409.92 6352.46 1366.12 6316.9 1309.74C6281.33 1253.36 6263.69 1189.1 6263.69 1117.11C6263.69 1053.26 6276.05 996.883 6300.64 947.964C6325.23 899.046 6358.02 854.964 6399 815.443C6439.98 776.059 6484.29 739.993 6532.22 707.38L6685.86 601.391C6725.45 574.168 6763.79 546.392 6800.6 517.788C6837.55 489.321 6868.25 457.952 6892.84 423.958C6917.43 389.964 6929.79 351.963 6929.79 309.816C6929.79 251.363 6909.93 204.793 6870.34 170.247C6830.74 135.562 6780.18 118.288 6718.64 118.288C6666.68 118.288 6621.95 136.667 6584.45 173.287C6546.8 210.045 6528.05 254.126 6528.05 305.808C6528.05 347.955 6540.97 385.957 6566.94 419.951C6592.92 453.945 6625.7 494.71 6665.3 542.247L6909.09 833.684L7425.44 1457.46H7257.35L6792.26 898.908L6560.69 621.704C6532.08 586.328 6504.99 552.058 6479.71 518.755C6454.42 485.452 6434.28 451.458 6419.28 416.773C6404.27 382.088 6396.77 345.053 6396.77 305.67C6396.77 247.217 6411.08 195.259 6439.84 149.795C6468.59 104.331 6507.07 67.9881 6555.55 40.7652C6604.03 13.5423 6658.35 0 6718.5 0C6782.68 0 6840.75 12.9896 6892.7 38.6924C6944.65 64.5334 6985.63 100.6 7015.64 146.755C7045.65 192.909 7060.65 247.355 7060.65 309.816C7060.65 362.741 7046.34 412.489 7017.59 458.643C6988.97 504.798 6951.32 548.051 6904.92 588.125C6858.53 628.199 6808.66 666.615 6755.31 703.235L6603.62 807.152C6569.44 830.229 6536.38 855.793 6504.29 883.569C6472.2 911.483 6445.95 943.68 6425.39 980.438C6404.83 1017.2 6394.69 1062.66 6394.69 1116.97C6394.69 1191.73 6420.94 1252.53 6473.59 1299.37C6526.1 1346.22 6593.48 1369.71 6675.44 1369.71C6751.98 1369.71 6821.99 1356.45 6885.48 1329.91C6948.96 1303.38 7004.25 1266.07 7051.48 1217.84C7098.57 1169.62 7134.83 1112.27 7160.11 1045.66C7185.39 979.056 7198.04 906.37 7198.04 827.603H7329.17C7329.17 955.288 7301.11 1069.15 7245.13 1169.06C7189.15 1268.97 7112.33 1347.05 7014.67 1403.43C6917.01 1459.81 6803.93 1488 6675.58 1488Z" fill="white"/>
<path d="M8247.27 1481.78C8109.32 1481.78 7986.66 1450.14 7879.42 1386.99C7772.18 1323.83 7688.13 1236.91 7627.43 1126.09C7566.58 1015.4 7536.3 887.992 7536.3 743.863C7536.3 599.733 7566.72 472.463 7627.43 361.637C7688.13 250.949 7771.9 163.891 7878.45 100.739C7985 37.5878 8107.24 5.94293 8245.18 5.94293C8338.12 5.94293 8425.5 22.6636 8507.46 55.8285C8589.42 89.1316 8662.21 135.01 8725.69 193.463C8789.18 251.916 8838.07 319.904 8872.25 397.289L8654.98 484.9C8630.4 433.218 8597.2 387.478 8555.66 347.265C8513.99 307.191 8466.48 276.237 8413.27 254.542C8360.07 232.846 8303.94 221.93 8245.18 221.93C8155.03 221.93 8074.73 244.316 8004.44 289.227C7934.01 334.138 7878.73 395.631 7838.44 473.707C7798.15 551.921 7778.01 641.881 7778.01 743.725C7778.01 845.569 7798.15 936.081 7838.44 1014.85C7878.73 1093.61 7934.71 1155.52 8006.39 1200.3C8078.07 1245.21 8159.75 1267.59 8251.3 1267.59C8311.45 1267.59 8367.71 1255.71 8420.36 1231.94C8472.87 1208.17 8520.1 1175.28 8561.77 1133.14C8603.45 1090.99 8636.51 1042.07 8661.1 986.381L8878.22 1073.99C8844.05 1154.14 8795.57 1225.17 8732.78 1286.94C8669.99 1348.85 8596.78 1396.66 8513.57 1430.65C8430.22 1464.65 8341.45 1481.64 8247.27 1481.64V1481.78Z" fill="white"/>
<path d="M9535.99 1481.78C9433.47 1481.78 9342.34 1458.98 9262.46 1413.52C9182.59 1368.05 9120.07 1305.18 9074.93 1225.03C9029.78 1144.88 9007.27 1052.43 9007.27 947.826C9007.27 843.218 9029.5 750.771 9073.81 670.622C9118.13 590.474 9180.08 527.599 9259.27 482.135C9338.45 436.671 9429.3 413.87 9531.82 413.87C9634.34 413.87 9725.05 436.671 9804.37 482.135C9883.55 527.737 9945.37 590.474 9989.82 670.622C10034.1 750.771 10056.4 843.218 10056.4 947.826C10056.4 1052.43 10034.6 1144.88 9990.8 1225.03C9947.04 1305.18 9885.64 1368.05 9806.32 1413.52C9727.13 1458.98 9636.98 1481.78 9535.85 1481.78H9535.99ZM9535.99 1271.88C9591.97 1271.88 9641.84 1257.92 9685.6 1230.14C9729.36 1202.37 9763.53 1164.23 9788.12 1116C9812.71 1067.77 9825.07 1011.67 9825.07 947.826C9825.07 883.983 9812.43 827.879 9787.14 779.652C9761.86 731.425 9727.41 693.423 9683.65 665.509C9639.9 637.734 9589.33 623.777 9531.96 623.777C9474.59 623.777 9424.02 637.319 9380.26 664.542C9336.5 691.765 9302.33 729.766 9277.74 778.685C9253.15 827.603 9240.79 883.983 9240.79 947.826C9240.79 1011.67 9253.43 1067.77 9278.71 1116C9304 1164.23 9338.87 1202.37 9383.18 1230.14C9427.49 1258.06 9478.48 1271.88 9535.85 1271.88H9535.99Z" fill="white"/>
<path d="M10452.3 1488C10389.6 1488 10335.9 1465.77 10291.6 1421.52C10247.2 1377.28 10225.2 1323.57 10225.2 1260.84C10225.2 1198.1 10247.4 1143.95 10291.6 1098.39C10335.9 1053.05 10389.6 1030.15 10452.3 1030.15C10515.1 1030.15 10569.2 1052.83 10614.8 1098.39C10660.3 1143.95 10683 1197.88 10683 1260.84C10683 1323.79 10660.3 1377.28 10614.8 1421.52C10569.2 1465.77 10515.3 1488 10452.3 1488Z" fill="#676636"/>
</g>
<defs>
<clipPath id="clip0_374_4555">
<rect width="10683" height="1488" fill="white"/>
</clipPath>
</defs>
</svg>
