<svg width="30" height="48" viewBox="0 0 30 48" fill="none" xmlns="http://www.w3.org/2000/svg">
<path d="M13.4 31.792H12.44V30.832C12.44 20.208 16.92 17.968 16.92 8.432C16.92 3.76 14.808 2.672 12.824 2.672C8.728 2.672 5.208 7.92 0.728 15.472L0.024 15.152L5.4 0.559998H5.848C5.784 1.072 6.04 2.608 7.512 2.608C9.624 2.608 10.968 1.584 15 1.584C23.64 1.584 29.016 4.784 29.016 11.76C29.016 23.408 13.4 25.776 13.4 30.832V31.792ZM13.336 47.024C9.752 47.024 6.808 43.888 6.808 40.432C6.808 36.848 9.752 33.904 13.336 33.904C16.92 33.904 19.8 36.848 19.8 40.432C19.8 44.08 16.92 47.024 13.336 47.024Z" fill="#1DB954"/>
</svg>
